HIERARCHY
ROOT Hips
{
	OFFSET 0.000000 0.000000 0.000000
	CHANNELS 6 Xposition Yposition Zposition Zrotation Yrotation Xrotation 
	JOINT LHipJoint
	{
		OFFSET 0.000000 0.000000 0.000000
		CHANNELS 3 Zrotation Yrotation Xrotation
		JOINT LeftUpLeg
		{
			OFFSET 1.363060 -1.794630 0.839290
			CHANNELS 3 Zrotation Yrotation Xrotation
			JOINT LeftLeg
			{
				OFFSET 2.448110 -6.726130 0.000000
				CHANNELS 3 Zrotation Yrotation Xrotation
				JOINT LeftFoot
				{
					OFFSET 2.562200 -7.039590 0.000000
					CHANNELS 3 Zrotation Yrotation Xrotation
					JOINT LeftToeBase
					{
						OFFSET 0.157640 -0.433110 2.322550
						CHANNELS 3 Zrotation Yrotation Xrotation
						End Site
						{
							OFFSET 0.000000 0.000000 0.000000
						}
					}
				}
			}
		}
	}
	JOINT RHipJoint
	{
		OFFSET 0.000000 0.000000 0.000000
		CHANNELS 3 Zrotation Yrotation Xrotation
		JOINT RightUpLeg
		{
			OFFSET -1.305520 -1.794630 0.839290
			CHANNELS 3 Zrotation Yrotation Xrotation
			JOINT RightLeg
			{
				OFFSET -2.542530 -6.985550 0.000000
				CHANNELS 3 Zrotation Yrotation Xrotation
				JOINT RightFoot
				{
					OFFSET -2.568260 -7.056230 0.000000
					CHANNELS 3 Zrotation Yrotation Xrotation
					JOINT RightToeBase
					{
						OFFSET -0.164730 -0.452590 2.363150
						CHANNELS 3 Zrotation Yrotation Xrotation
						End Site
						{
							OFFSET 0.000000 0.000000 0.000000
						}
					}
				}
			}
		}
	}
	JOINT LowerBack
	{
		OFFSET 0.000000 0.000000 0.000000
		CHANNELS 3 Zrotation Yrotation Xrotation
		JOINT Spine
		{
			OFFSET 0.028270 2.035590 -0.193380
			CHANNELS 3 Zrotation Yrotation Xrotation
			JOINT Spine1
			{
				OFFSET 0.056720 2.048850 -0.042750
				CHANNELS 3 Zrotation Yrotation Xrotation
				JOINT Neck
				{
					OFFSET 0.000000 0.000000 0.000000
					CHANNELS 3 Zrotation Yrotation Xrotation
					JOINT Neck1
					{
						OFFSET -0.054170 1.746240 0.172020
						CHANNELS 3 Zrotation Yrotation Xrotation
						JOINT Head
						{
							OFFSET 0.104070 1.761360 -0.123970
							CHANNELS 3 Zrotation Yrotation Xrotation
							End Site
							{
								OFFSET 0.000000 0.000000 0.000000
							}
						}
					}
				}
				JOINT LeftShoulder
				{
					OFFSET 0.000000 0.000000 0.000000
					CHANNELS 3 Zrotation Yrotation Xrotation
					JOINT LeftArm
					{
						OFFSET 3.362410 1.200890 -0.311210
						CHANNELS 3 Zrotation Yrotation Xrotation
						JOINT LeftForeArm
						{
							OFFSET 4.983000 -0.000000 -0.000000
							CHANNELS 3 Zrotation Yrotation Xrotation
							JOINT LeftHand
							{
								OFFSET 3.483560 -0.000000 -0.000000
								CHANNELS 3 Zrotation Yrotation Xrotation
								JOINT LeftFingerBase
								{
									OFFSET 0.000000 0.000000 0.000000
									CHANNELS 3 Zrotation Yrotation Xrotation
									JOINT LeftHandIndex1
									{
										OFFSET 0.715260 -0.000000 -0.000000
										CHANNELS 3 Zrotation Yrotation Xrotation
										End Site
										{
											OFFSET 0.000000 0.000000 0.000000
										}
									}
								}
								JOINT LThumb
								{
									OFFSET 0.000000 0.000000 0.000000
									CHANNELS 3 Zrotation Yrotation Xrotation
									End Site
									{
										OFFSET 0.000000 0.000000 0.000000
									}
								}
							}
						}
					}
				}
				JOINT RightShoulder
				{
					OFFSET 0.000000 0.000000 0.000000
					CHANNELS 3 Zrotation Yrotation Xrotation
					JOINT RightArm
					{
						OFFSET -3.136600 1.374050 -0.404650
						CHANNELS 3 Zrotation Yrotation Xrotation
						JOINT RightForeArm
						{
							OFFSET -5.241900 -0.000000 -0.000000
							CHANNELS 3 Zrotation Yrotation Xrotation
							JOINT RightHand
							{
								OFFSET -3.444170 -0.000000 -0.000000
								CHANNELS 3 Zrotation Yrotation Xrotation
								JOINT RightFingerBase
								{
									OFFSET 0.000000 0.000000 0.000000
									CHANNELS 3 Zrotation Yrotation Xrotation
									JOINT RightHandIndex1
									{
										OFFSET -0.622530 -0.000000 -0.000000
										CHANNELS 3 Zrotation Yrotation Xrotation
										End Site
										{
											OFFSET 0.000000 0.000000 0.000000
										}
									}
								}
								JOINT RThumb
								{
									OFFSET 0.000000 0.000000 0.000000
									CHANNELS 3 Zrotation Yrotation Xrotation
									End Site
									{
										OFFSET 0.000000 0.000000 0.000000
									}
								}
							}
						}
					}
				}
			}
		}
	}
}
MOTION
Frames: 7
Frame Time: 0.008333
53.544763 17.088372 -3.562949 -161.185830 -85.325837 162.714318 -1.117939 -0.263391 0.879643 -19.019189 13.477181 -8.921521 0.091351 7.390081 20.792331 -2.033201 9.683049 -10.896028 0.003800 0.399800 1.098500 -0.451566 1.471746 -1.157399 17.005138 8.152898 -20.277986 -6.837503 -17.032575 50.717517 2.846930 -12.078809 -8.627325 -0.069000 1.694400 -4.661700 -0.475928 -0.196328 2.172599 0.995326 -0.023924 -1.668311 -1.814472 -0.159807 2.448107 -0.460423 -0.510814 -8.177808 7.787250 -1.663259 4.989679 0.910600 -0.664800 1.572500 -6.246783 -5.140803 1.135240 -76.324614 0.924107 11.883479 2.532218 -11.482843 -1.051085 -1.856687 -1.714403 -0.810358 12.096722 14.252925 3.892600 -7.125000 0.000000 0.000000 -12.881600 45.897100 -0.290000 7.530017 4.685042 0.302158 76.253775 -1.377338 21.891935 -11.570452 23.262525 -3.711272 1.463077 0.251097 2.276314 -17.255529 -4.150956 1.501400 7.125000 0.000000 0.000000 6.561500 -34.607000 1.683200 
53.534080 17.087731 -3.544894 -162.383720 -85.303046 163.920045 -1.134302 -0.254491 0.910092 -19.131182 14.110635 -9.058604 0.077421 7.318754 20.618045 -1.881688 9.185024 -10.540087 0.003900 0.401400 1.102800 -0.609558 1.501291 -1.224906 16.933795 8.427318 -21.221281 -7.331786 -17.392504 52.159881 3.132749 -12.943697 -8.151114 -0.029500 1.108700 -3.047900 -0.620614 -0.227494 2.245928 0.991047 -0.061668 -1.680992 -1.797333 -0.186641 2.324110 -0.403272 -0.462832 -7.971567 7.757505 -1.608287 4.961342 0.871000 -0.644500 1.492100 -6.259171 -5.171314 1.164194 -76.171710 0.580310 11.535589 2.405561 -11.287065 -1.027642 -1.872500 -1.699435 -0.334367 12.007224 14.300452 3.878600 -7.125000 0.000000 0.000000 -12.976300 45.933800 -0.304200 7.538498 4.692751 0.296510 76.270553 -1.589886 21.857505 -11.521733 23.219408 -3.692563 1.463719 0.257868 2.388355 -17.218169 -4.219352 1.524300 7.125000 0.000000 0.000000 6.600600 -34.686900 1.680400 
53.518375 17.079612 -3.526625 -164.037792 -85.279077 165.588861 -1.163215 -0.257074 0.931817 -19.315938 14.813205 -9.242520 0.065277 7.217253 20.346401 -1.978169 9.390296 -10.014748 0.001000 -0.201600 -0.553900 -0.754258 1.528581 -1.293935 16.814142 8.681642 -22.152441 -7.799554 -17.718731 53.475853 3.456474 -13.931637 -7.593225 -0.007100 0.544000 -1.495000 -0.766003 -0.253589 2.253379 0.975454 -0.088401 -1.672415 -1.835929 -0.209286 2.383407 -0.336555 -0.413345 -8.031633 7.759020 -1.549792 4.937748 0.856900 -0.617200 1.479700 -6.287001 -5.192552 1.190917 -75.941644 0.123796 11.632348 2.367645 -11.227611 -1.032655 -1.906225 -1.752093 -0.183607 12.028379 14.827884 4.030700 -7.125000 0.000000 0.000000 -13.109400 46.517100 -0.499200 7.541492 4.698981 0.296664 76.300665 -1.630880 21.858948 -11.474945 23.177918 -3.673977 1.462775 0.258332 2.465627 -17.191762 -4.232123 1.527000 7.125000 0.000000 0.000000 6.625100 -34.701700 1.684400 
53.499252 17.083244 -3.510065 -164.667231 -85.351727 166.266628 -1.184071 -0.251093 0.961466 -19.431198 15.009557 -9.209169 0.031359 7.124397 20.096836 -1.925279 9.214755 -9.873574 0.000700 -0.168300 -0.462500 -0.897305 1.558572 -1.348472 16.816123 8.842958 -23.100726 -8.213404 -18.007018 54.706996 3.678711 -14.724375 -7.985884 -0.002600 0.329100 -0.904300 -0.845856 -0.323861 2.278345 0.969218 -0.176711 -1.690691 -1.859849 -0.258405 2.310166 -0.331237 -0.393995 -7.993712 7.741798 -1.521970 4.971659 0.848500 -0.601700 1.497900 -6.302794 -5.218591 1.196142 -75.755609 -0.149430 11.798228 2.401724 -11.264467 -1.039928 -1.919687 -1.740746 -0.265127 12.130906 14.734047 4.040200 -7.125000 0.000000 0.000000 -12.966800 46.424100 -0.463400 7.536538 4.719437 0.288749 76.370033 -1.749718 21.623293 -11.342869 23.032404 -3.624110 1.461873 0.243104 2.702222 -17.191896 -4.154903 1.497900 7.125000 0.000000 0.000000 6.617100 -34.611400 1.696900 
53.481303 17.081642 -3.493506 -165.407666 -85.402355 167.034534 -1.208100 -0.245447 0.987693 -19.549311 15.327276 -9.204847 0.002602 7.022737 19.823405 -1.928938 9.190699 -9.622158 0.002800 -0.344400 -0.946300 -1.031034 1.583653 -1.400089 16.786529 9.022125 -24.005451 -8.604805 -18.271624 55.848896 3.881656 -15.437567 -8.185842 -0.000000 -0.014400 0.039700 -0.934205 -0.382116 2.317993 0.962702 -0.249358 -1.700195 -1.880238 -0.301043 2.264313 -0.310876 -0.355571 -7.969901 7.735145 -1.472587 4.968772 0.841900 -0.578000 1.490000 -6.320600 -5.245494 1.210117 -75.563653 -0.481763 11.917436 2.415558 -11.272102 -1.046644 -1.934365 -1.748575 -0.220520 12.148880 14.828422 4.074000 -7.125000 0.000000 0.000000 -12.970000 46.529800 -0.497900 7.534002 4.735326 0.283591 76.421209 -1.875119 21.482787 -11.259431 22.945844 -3.593150 1.461291 0.236427 2.846648 -17.183440 -4.125000 1.486100 7.125000 0.000000 0.000000 6.621500 -34.576600 1.703700 
53.461646 17.081321 -3.477374 -165.843183 -85.478404 167.490990 -1.230769 -0.237589 1.013345 -19.647332 15.504193 -9.130050 -0.028274 6.923119 19.552984 -1.954234 9.241627 -9.452304 0.005900 -0.494600 -1.359000 -1.151387 1.608515 -1.446528 16.781135 9.163232 -24.866867 -8.937076 -18.495372 56.836412 4.037798 -16.029347 -8.601283 -0.002100 -0.295200 0.811000 -0.995940 -0.449808 2.369219 0.958442 -0.335298 -1.709630 -1.901159 -0.349171 2.214453 -0.306625 -0.311048 -7.950086 7.734733 -1.414040 4.955870 0.844900 -0.550000 1.477600 -6.337619 -5.272809 1.222293 -75.377549 -0.800182 12.115314 2.460376 -11.322514 -1.058437 -1.946576 -1.753020 -0.250302 12.187537 14.868640 4.099700 -7.125000 0.000000 0.000000 -12.935900 46.578800 -0.512400 7.529081 4.752279 0.279204 76.476506 -2.010845 21.326521 -11.177880 22.861886 -3.563782 1.461801 0.229425 2.975382 -17.189370 -4.094018 1.475000 7.125000 0.000000 0.000000 6.612800 -34.540600 1.707200 
53.440492 17.082924 -3.461669 -165.873729 -85.572895 167.534816 -1.251721 -0.224566 1.039738 -19.712780 15.537066 -8.976611 -0.062345 6.824714 19.283178 -1.988025 9.329260 -9.369508 0.008000 -0.578300 -1.589000 -1.259601 1.635088 -1.489784 16.808892 9.275613 -25.684709 -9.213792 -18.683628 57.682402 4.141854 -16.480574 -9.186833 -0.006600 -0.525200 1.443200 -1.024019 -0.524468 2.437248 0.957554 -0.432176 -1.718633 -1.919509 -0.401076 2.152276 -0.316874 -0.256680 -7.911034 7.736432 -1.341711 4.923426 0.853700 -0.516800 1.447100 -6.351882 -5.300423 1.233465 -75.205331 -1.095988 12.401928 2.542568 -11.424845 -1.077089 -1.955587 -1.756103 -0.359046 12.242650 14.868398 4.119500 -7.125000 0.000000 0.000000 -12.873400 46.585700 -0.512100 7.523288 4.768935 0.276775 76.529738 -2.164365 21.160646 -11.099663 22.782758 -3.536426 1.463748 0.223504 3.085512 -17.207601 -4.072837 1.468500 7.125000 0.000000 0.000000 6.594000 -34.516100 1.706300 
